# xmcd
#
# Track frame offsets: 
#        150
#        18582
#        39982
#        58397
#        77190
#        92240
#        113545
#        130130
#        152135
#        171885
#
# Disc length: 2630 seconds
#
# Revision: 6
# Processed by: cddbd v1.5.2PL0 Copyright (c) Steve Scherf et al.
# Submitted via: ExactAudioCopy v0.95a5
#
DISCID=7e0a440a
DTITLE=Workshy - Mood
DYEAR=2002
DGENRE=Rock
TTITLE0=Forever
TTITLE1=How Is It
TTITLE2=Believe It
TTITLE3=Have It Your Way
TTITLE4=The Girl In Question
TTITLE5=Summer's Gone
TTITLE6=Caught Up
TTITLE7=Don't Rely On It
TTITLE8=For A Minute
TTITLE9=The Penny Drops
EXTD=
EXTT0=
EXTT1=
EXTT2=
EXTT3=
EXTT4=
EXTT5=
EXTT6=
EXTT7=
EXTT8=
EXTT9=
PLAYORDER=
